<?xml version="1.0" encoding="UTF-8" standalone="no"?>
<!-- Created with Inkscape (http://www.inkscape.org/) -->

<svg
   xmlns:dc="http://purl.org/dc/elements/1.1/"
   xmlns:cc="http://creativecommons.org/ns#"
   xmlns:rdf="http://www.w3.org/1999/02/22-rdf-syntax-ns#"
   xmlns:svg="http://www.w3.org/2000/svg"
   xmlns="http://www.w3.org/2000/svg"
   xmlns:xlink="http://www.w3.org/1999/xlink"
   xmlns:sodipodi="http://sodipodi.sourceforge.net/DTD/sodipodi-0.dtd"
   xmlns:inkscape="http://www.inkscape.org/namespaces/inkscape"
   width="169.88753mm"
   height="86.517784mm"
   id="svg2"
   version="1.1"
   inkscape:version="0.91 r13725"
   sodipodi:docname="1.svg">
  <defs
     id="defs4" />
  <sodipodi:namedview
     id="base"
     pagecolor="#ffffff"
     bordercolor="#666666"
     borderopacity="1.0"
     inkscape:pageopacity="0.0"
     inkscape:pageshadow="2"
     inkscape:zoom="1.9801859"
     inkscape:cx="300.98185"
     inkscape:cy="153.27954"
     inkscape:document-units="mm"
     inkscape:current-layer="layer1"
     showgrid="false"
     inkscape:window-width="1366"
     inkscape:window-height="742"
     inkscape:window-x="0"
     inkscape:window-y="0"
     inkscape:window-maximized="1"
     showguides="true"
     inkscape:guide-bbox="true"
     inkscape:object-nodes="true">
    <sodipodi:guide
       position="-0.39851097,322.69392"
       orientation="1,0"
       id="guide4681"
       inkscape:label=""
       inkscape:color="rgb(0,0,255)" />
    <sodipodi:guide
       position="601.9637,62.693922"
       orientation="1,0"
       id="guide4683"
       inkscape:label=""
       inkscape:color="rgb(0,0,255)" />
  </sodipodi:namedview>
  <metadata
     id="metadata7">
    <rdf:RDF>
      <cc:Work
         rdf:about="">
        <dc:format>image/svg+xml</dc:format>
        <dc:type
           rdf:resource="http://purl.org/dc/dcmitype/StillImage" />
        <dc:title />
      </cc:Work>
    </rdf:RDF>
  </metadata>
  <g
     inkscape:label="Capa 1"
     inkscape:groupmode="layer"
     id="layer1"
     transform="translate(-71.264653,-354.21133)">
    <image
       sodipodi:absref="/home/alf/Escritorio/temperature_data_logger/Documentation/Dias/180820/20180819_180313.jpg"
       xlink:href="20180819_180313.jpg"
       width="544.9939"
       height="306.55908"
       preserveAspectRatio="none"
       id="image4143"
       x="128.23445"
       y="354.21133" />
    <g
       id="g4206"
       transform="matrix(0.9047611,0,0,0.9047611,64.117525,48.332874)">
      <g
         style="stroke:#ffffff;stroke-width:3.0625391;stroke-linejoin:round;stroke-miterlimit:4;stroke-dasharray:none"
         id="g4178">
        <text
           sodipodi:linespacing="125%"
           id="text4180"
           y="377.1821"
           x="495.10248"
           style="font-style:normal;font-weight:normal;font-size:16.15250397px;line-height:125%;font-family:sans-serif;text-align:start;letter-spacing:0px;word-spacing:0px;writing-mode:lr-tb;text-anchor:start;fill:#ff0000;fill-opacity:1;stroke:#ffffff;stroke-width:3.0625391;stroke-linecap:butt;stroke-linejoin:round;stroke-miterlimit:4;stroke-dasharray:none;stroke-opacity:1"
           xml:space="preserve"><tspan
             y="377.1821"
             x="495.10248"
             id="tspan4182"
             sodipodi:role="line"
             style="stroke-width:3.0625391">Switch para frenar la</tspan><tspan
             id="tspan4184"
             y="397.37274"
             x="495.10248"
             sodipodi:role="line"
             style="stroke-width:3.0625391">adquisición de datos</tspan><tspan
             id="tspan4186"
             y="417.56335"
             x="495.10248"
             sodipodi:role="line"
             style="stroke-width:3.0625391">y liberar la memoria </tspan><tspan
             id="tspan4188"
             y="437.754"
             x="495.10248"
             sodipodi:role="line"
             style="stroke-width:3.0625391">SD en forma segura.</tspan></text>
        <path
           inkscape:connector-curvature="0"
           d="m 575.43456,446.84899 c 0.21221,0.56718 0.40585,1.14063 0.59307,1.71645 0.32204,1.0358 0.58119,2.08986 0.8192,3.1477 0.34818,1.40148 0.54246,2.8327 0.7506,4.25972 0.25122,1.66716 0.38313,3.34799 0.51218,5.02791 0.1276,1.89285 0.18872,3.78878 0.25085,5.68458 -0.0769,2.17895 -0.30796,4.35038 -0.56914,6.51403 -0.26727,2.18471 -0.57643,4.36418 -0.89153,6.54244 -0.33411,2.26533 -0.69514,4.52644 -1.03972,6.79017 -0.34248,2.32978 -0.79153,4.64143 -1.26332,6.94783 -0.48792,2.383 -1.05738,4.74805 -1.61376,7.11568 -0.5957,2.49414 -1.27819,4.96585 -1.96911,7.43487 -0.72983,2.5197 -1.58278,5.00189 -2.53056,7.44739 -0.9746,2.46013 -2.01905,4.8924 -3.13532,7.29144 -1.11777,2.35088 -2.44974,4.58971 -3.88631,6.75749 -1.33523,2.07052 -2.93572,3.93971 -4.58619,5.76064 -1.54251,1.75372 -3.23311,3.3611 -5.02234,4.85877 -1.73876,1.4175 -3.56748,2.7201 -5.45844,3.92555 -1.87316,1.16128 -3.78898,2.25152 -5.75038,3.25623 -1.87745,0.95291 -3.84291,1.71209 -5.84055,2.36945 -1.87636,0.60541 -3.79983,1.04211 -5.73314,1.41908 -1.87132,0.3614 -3.76302,0.5904 -5.65805,0.78125 -1.85298,0.19326 -3.70731,0.32075 -5.57027,0.30459 -1.81877,-0.0473 -3.62504,-0.30571 -5.42721,-0.53993 -1.73984,-0.2213 -3.44869,-0.62504 -5.15627,-1.01584 -1.6784,-0.34648 -3.34034,-0.76624 -4.98321,-1.25325 -1.52616,-0.4906 -3.05431,-0.9769 -4.57273,-1.49112 -1.46261,-0.48072 -2.87802,-1.08751 -4.28298,-1.71352 -1.31167,-0.58575 -2.57314,-1.2766 -3.83213,-1.96645 -1.18102,-0.64018 -2.35458,-1.2933 -3.51529,-1.96962 -1.10966,-0.62979 -2.1797,-1.3282 -3.24798,-2.02539 -0.98611,-0.63425 -1.96436,-1.27895 -2.91279,-1.96853 -0.88672,-0.66147 -1.76878,-1.32939 -2.64167,-2.00903 -0.78208,-0.60453 -1.53827,-1.23962 -2.26603,-1.90823 -0.66204,-0.59631 -1.27658,-1.24118 -1.89776,-1.87899 -0.5606,-0.57454 -1.10018,-1.16938 -1.62401,-1.77751 -0.45019,-0.52622 -0.91488,-1.0389 -1.37687,-1.55464 -0.40095,-0.46767 -0.83804,-0.90206 -1.25911,-1.35115 -0.41519,-0.41872 -0.79012,-0.87296 -1.18295,-1.31191 -0.34584,-0.39077 -0.68818,-0.78453 -1.02877,-1.17998 -0.27192,-0.31385 -0.5615,-0.61132 -0.8426,-0.91692 -0.18454,-0.23659 -0.39177,-0.45381 -0.59874,-0.67054 -0.0775,-0.0692 -0.1209,-0.16632 -0.1901,-0.24205 -0.026,-0.0284 0.0358,0.0719 0.0675,0.0938 0.0786,0.0542 0.16122,0.11545 0.25572,0.12896 0.30917,0.0442 0.34257,-0.0238 0.54342,-0.16771 0.10284,-0.21679 -0.0476,0.49655 -0.0493,0.51069 -0.0611,0.54523 -0.0871,1.09341 -0.10445,1.64151 -0.0228,0.64951 -0.0361,1.29937 -0.0476,1.94917 0.0693,0.5145 -0.1292,1.09985 0.0312,1.59875 0.1228,0.37224 0.27853,0.73208 0.43528,1.09093 0.0106,0.009 0.0299,0.0393 0.0317,0.0258 0.0367,-0.27061 -0.71373,-0.41647 -1.00718,0.0297 0.10059,-0.45998 0.12553,-0.93306 0.15715,-1.40167 0.0402,-0.69848 0.0611,-1.39787 0.0727,-2.09736 0.0104,-0.57328 0.002,-1.146 0.0549,-1.71735 0.026,-0.40009 0.0867,-0.79197 0.19222,-1.17844 0.13903,-0.44298 0.4607,-0.73502 0.85448,-0.95164 0.64623,-0.30415 1.31063,-0.14644 1.96789,0.0236 0.86009,0.24941 1.69603,0.57401 2.53584,0.88326 0.79573,0.28065 1.58798,0.57142 2.39252,0.82618 0.60535,0.17721 1.19992,0.38862 1.79906,0.58534 0.43669,0.10277 0.80758,0.32434 1.1634,0.58811 0.74049,0.55823 -0.049,1.60543 -0.78945,1.0472 l 0,0 c -0.24102,-0.1862 -0.49055,-0.33389 -0.79104,-0.40861 -0.58936,-0.20681 -1.16891,-0.44187 -1.76707,-0.62352 -0.81646,-0.27025 -1.62052,-0.57536 -2.42938,-0.86728 -0.79524,-0.29205 -1.59208,-0.58773 -2.41217,-0.80305 -0.33996,-0.0762 -0.71329,-0.20717 -1.04945,-0.0684 -0.0743,0.0278 -0.1514,0.0777 -0.19068,0.14477 -0.097,0.3038 -0.15166,0.61314 -0.17969,0.93143 -0.0582,0.53921 -0.067,1.08028 -0.083,1.62224 -0.0261,0.71037 -0.0435,1.42106 -0.073,2.1313 -0.0224,0.56 -0.0367,1.12377 -0.13165,1.67722 -0.031,0.0998 -0.0292,0.21681 -0.0931,0.29957 -0.51484,0.66653 -1.15047,0.48945 -1.4491,-0.1911 -0.17459,-0.44401 -0.35656,-0.88704 -0.48295,-1.34774 -0.098,-0.61942 -0.0327,-1.24415 -0.029,-1.8701 0.01,-0.65755 0.0222,-1.31502 0.0416,-1.97238 0.0217,-0.57862 0.028,-1.15834 0.0725,-1.73577 0.0391,-0.42443 0.0624,-0.86771 0.30167,-1.23498 0.0878,-0.0774 0.15643,-0.18481 0.26349,-0.23214 0.46202,-0.20424 0.84991,-0.0133 1.10413,0.37244 0.20306,0.22916 0.40923,0.45639 0.59704,0.69834 0.27651,0.3196 0.56979,0.62372 0.83827,0.95026 0.33806,0.3912 0.6722,0.78583 1.01137,1.17602 0.37949,0.43552 0.7497,0.87844 1.15608,1.28989 0.4245,0.45949 0.86501,0.9044 1.27054,1.38135 0.46284,0.52599 0.93203,1.0459 1.37815,1.58648 0.50328,0.59566 1.03201,1.16888 1.57353,1.72986 0.58995,0.63131 1.18628,1.25744 1.82444,1.84069 0.70201,0.64929 1.43225,1.26601 2.18191,1.85977 0.85479,0.6778 1.72112,1.34094 2.59271,1.99694 0.93681,0.6766 1.89781,1.31665 2.86654,1.94655 1.04188,0.69826 2.09291,1.38462 3.1837,2.0048 1.15144,0.67279 2.30936,1.33351 3.48179,1.96924 1.23104,0.67916 2.4647,1.3581 3.74502,1.94104 1.36577,0.62468 2.7516,1.20961 4.17913,1.67983 1.50462,0.51104 3.01005,1.02062 4.52197,1.50953 1.62073,0.48046 3.26078,0.88668 4.91523,1.23431 1.67621,0.37765 3.34657,0.80036 5.05453,1.01242 1.75954,0.23164 3.52284,0.48475 5.29905,0.53273 1.82339,0.022 3.63891,-0.0964 5.45297,-0.28291 1.86287,-0.18921 3.72296,-0.41701 5.56481,-0.75884 1.89161,-0.36533 3.76973,-0.80257 5.61127,-1.37246 1.94984,-0.63546 3.87378,-1.35971 5.70203,-2.29554 1.94114,-0.9733 3.83515,-2.03758 5.66933,-3.20097 1.85813,-1.17478 3.65965,-2.43807 5.36234,-3.83072 1.74693,-1.47742 3.42931,-3.02978 4.94955,-4.74363 1.61523,-1.78963 3.17938,-3.62642 4.50678,-5.64475 1.42288,-2.12166 2.74268,-4.31015 3.82879,-6.62639 1.11176,-2.37691 2.16154,-4.78288 3.12338,-7.22466 0.91542,-2.42893 1.77947,-4.87563 2.47782,-7.37746 0.70334,-2.45077 1.38675,-4.90782 1.95188,-7.39488 0.55461,-2.35854 1.10119,-4.71894 1.59118,-7.09187 0.46801,-2.29016 0.90095,-4.58786 1.24833,-6.89972 0.34092,-2.26121 0.67719,-4.52312 1.0285,-6.78276 0.30361,-2.17349 0.59244,-4.3492 0.86444,-6.52687 0.26371,-2.10969 0.50337,-4.22739 0.53361,-6.35552 -0.0654,-1.88052 -0.14975,-3.76095 -0.29095,-5.63747 -0.12471,-1.65359 -0.28329,-3.3051 -0.52985,-4.94554 -0.21491,-1.39485 -0.44221,-2.78947 -0.79369,-4.15776 -0.24607,-1.01408 -0.50946,-2.02677 -0.86149,-3.00999 -0.18394,-0.51279 -0.3631,-1.03429 -0.62229,-1.51452 -0.42865,-0.85729 0.78375,-1.46349 1.2124,-0.6062 z"
           id="path4190"
           style="fill:#ff0000;fill-opacity:1;fill-rule:nonzero;stroke:#ffffff;stroke-width:3.0625391;stroke-linecap:butt;stroke-linejoin:round;stroke-miterlimit:4;stroke-dasharray:none;stroke-opacity:1" />
      </g>
      <g
         id="g4170">
        <text
           xml:space="preserve"
           style="font-style:normal;font-weight:normal;font-size:16.15250397px;line-height:125%;font-family:sans-serif;text-align:start;letter-spacing:0px;word-spacing:0px;writing-mode:lr-tb;text-anchor:start;fill:#ff0000;fill-opacity:1;stroke:none;stroke-width:1px;stroke-linecap:butt;stroke-linejoin:miter;stroke-opacity:1"
           x="495.10248"
           y="377.1821"
           id="text4146"
           sodipodi:linespacing="125%"><tspan
             sodipodi:role="line"
             id="tspan4148"
             x="495.10248"
             y="377.1821">Switch para frenar la</tspan><tspan
             sodipodi:role="line"
             x="495.10248"
             y="397.37274"
             id="tspan4150">adquisición de datos</tspan><tspan
             sodipodi:role="line"
             x="495.10248"
             y="417.56335"
             id="tspan4152">y liberar la memoria </tspan><tspan
             sodipodi:role="line"
             x="495.10248"
             y="437.754"
             id="tspan4154">SD en forma segura.</tspan></text>
        <path
           style="fill:#ff0000;fill-opacity:1;fill-rule:nonzero;stroke:none;stroke-width:1px;stroke-linecap:butt;stroke-linejoin:miter;stroke-opacity:1"
           id="path4156"
           d="m 575.43456,446.84899 c 0.21221,0.56718 0.40585,1.14063 0.59307,1.71645 0.32204,1.0358 0.58119,2.08986 0.8192,3.1477 0.34818,1.40148 0.54246,2.8327 0.7506,4.25972 0.25122,1.66716 0.38313,3.34799 0.51218,5.02791 0.1276,1.89285 0.18872,3.78878 0.25085,5.68458 -0.0769,2.17895 -0.30796,4.35038 -0.56914,6.51403 -0.26727,2.18471 -0.57643,4.36418 -0.89153,6.54244 -0.33411,2.26533 -0.69514,4.52644 -1.03972,6.79017 -0.34248,2.32978 -0.79153,4.64143 -1.26332,6.94783 -0.48792,2.383 -1.05738,4.74805 -1.61376,7.11568 -0.5957,2.49414 -1.27819,4.96585 -1.96911,7.43487 -0.72983,2.5197 -1.58278,5.00189 -2.53056,7.44739 -0.9746,2.46013 -2.01905,4.8924 -3.13532,7.29144 -1.11777,2.35088 -2.44974,4.58971 -3.88631,6.75749 -1.33523,2.07052 -2.93572,3.93971 -4.58619,5.76064 -1.54251,1.75372 -3.23311,3.3611 -5.02234,4.85877 -1.73876,1.4175 -3.56748,2.7201 -5.45844,3.92555 -1.87316,1.16128 -3.78898,2.25152 -5.75038,3.25623 -1.87745,0.95291 -3.84291,1.71209 -5.84055,2.36945 -1.87636,0.60541 -3.79983,1.04211 -5.73314,1.41908 -1.87132,0.3614 -3.76302,0.5904 -5.65805,0.78125 -1.85298,0.19326 -3.70731,0.32075 -5.57027,0.30459 -1.81877,-0.0473 -3.62504,-0.30571 -5.42721,-0.53993 -1.73984,-0.2213 -3.44869,-0.62504 -5.15627,-1.01584 -1.6784,-0.34648 -3.34034,-0.76624 -4.98321,-1.25325 -1.52616,-0.4906 -3.05431,-0.9769 -4.57273,-1.49112 -1.46261,-0.48072 -2.87802,-1.08751 -4.28298,-1.71352 -1.31167,-0.58575 -2.57314,-1.2766 -3.83213,-1.96645 -1.18102,-0.64018 -2.35458,-1.2933 -3.51529,-1.96962 -1.10966,-0.62979 -2.1797,-1.3282 -3.24798,-2.02539 -0.98611,-0.63425 -1.96436,-1.27895 -2.91279,-1.96853 -0.88672,-0.66147 -1.76878,-1.32939 -2.64167,-2.00903 -0.78208,-0.60453 -1.53827,-1.23962 -2.26603,-1.90823 -0.66204,-0.59631 -1.27658,-1.24118 -1.89776,-1.87899 -0.5606,-0.57454 -1.10018,-1.16938 -1.62401,-1.77751 -0.45019,-0.52622 -0.91488,-1.0389 -1.37687,-1.55464 -0.40095,-0.46767 -0.83804,-0.90206 -1.25911,-1.35115 -0.41519,-0.41872 -0.79012,-0.87296 -1.18295,-1.31191 -0.34584,-0.39077 -0.68818,-0.78453 -1.02877,-1.17998 -0.27192,-0.31385 -0.5615,-0.61132 -0.8426,-0.91692 -0.18454,-0.23659 -0.39177,-0.45381 -0.59874,-0.67054 -0.0775,-0.0692 -0.1209,-0.16632 -0.1901,-0.24205 -0.026,-0.0284 0.0358,0.0719 0.0675,0.0938 0.0786,0.0542 0.16122,0.11545 0.25572,0.12896 0.30917,0.0442 0.34257,-0.0238 0.54342,-0.16771 0.10284,-0.21679 -0.0476,0.49655 -0.0493,0.51069 -0.0611,0.54523 -0.0871,1.09341 -0.10445,1.64151 -0.0228,0.64951 -0.0361,1.29937 -0.0476,1.94917 0.0693,0.5145 -0.1292,1.09985 0.0312,1.59875 0.1228,0.37224 0.27853,0.73208 0.43528,1.09093 0.0106,0.009 0.0299,0.0393 0.0317,0.0258 0.0367,-0.27061 -0.71373,-0.41647 -1.00718,0.0297 0.10059,-0.45998 0.12553,-0.93306 0.15715,-1.40167 0.0402,-0.69848 0.0611,-1.39787 0.0727,-2.09736 0.0104,-0.57328 0.002,-1.146 0.0549,-1.71735 0.026,-0.40009 0.0867,-0.79197 0.19222,-1.17844 0.13903,-0.44298 0.4607,-0.73502 0.85448,-0.95164 0.64623,-0.30415 1.31063,-0.14644 1.96789,0.0236 0.86009,0.24941 1.69603,0.57401 2.53584,0.88326 0.79573,0.28065 1.58798,0.57142 2.39252,0.82618 0.60535,0.17721 1.19992,0.38862 1.79906,0.58534 0.43669,0.10277 0.80758,0.32434 1.1634,0.58811 0.74049,0.55823 -0.049,1.60543 -0.78945,1.0472 l 0,0 c -0.24102,-0.1862 -0.49055,-0.33389 -0.79104,-0.40861 -0.58936,-0.20681 -1.16891,-0.44187 -1.76707,-0.62352 -0.81646,-0.27025 -1.62052,-0.57536 -2.42938,-0.86728 -0.79524,-0.29205 -1.59208,-0.58773 -2.41217,-0.80305 -0.33996,-0.0762 -0.71329,-0.20717 -1.04945,-0.0684 -0.0743,0.0278 -0.1514,0.0777 -0.19068,0.14477 -0.097,0.3038 -0.15166,0.61314 -0.17969,0.93143 -0.0582,0.53921 -0.067,1.08028 -0.083,1.62224 -0.0261,0.71037 -0.0435,1.42106 -0.073,2.1313 -0.0224,0.56 -0.0367,1.12377 -0.13165,1.67722 -0.031,0.0998 -0.0292,0.21681 -0.0931,0.29957 -0.51484,0.66653 -1.15047,0.48945 -1.4491,-0.1911 -0.17459,-0.44401 -0.35656,-0.88704 -0.48295,-1.34774 -0.098,-0.61942 -0.0327,-1.24415 -0.029,-1.8701 0.01,-0.65755 0.0222,-1.31502 0.0416,-1.97238 0.0217,-0.57862 0.028,-1.15834 0.0725,-1.73577 0.0391,-0.42443 0.0624,-0.86771 0.30167,-1.23498 0.0878,-0.0774 0.15643,-0.18481 0.26349,-0.23214 0.46202,-0.20424 0.84991,-0.0133 1.10413,0.37244 0.20306,0.22916 0.40923,0.45639 0.59704,0.69834 0.27651,0.3196 0.56979,0.62372 0.83827,0.95026 0.33806,0.3912 0.6722,0.78583 1.01137,1.17602 0.37949,0.43552 0.7497,0.87844 1.15608,1.28989 0.4245,0.45949 0.86501,0.9044 1.27054,1.38135 0.46284,0.52599 0.93203,1.0459 1.37815,1.58648 0.50328,0.59566 1.03201,1.16888 1.57353,1.72986 0.58995,0.63131 1.18628,1.25744 1.82444,1.84069 0.70201,0.64929 1.43225,1.26601 2.18191,1.85977 0.85479,0.6778 1.72112,1.34094 2.59271,1.99694 0.93681,0.6766 1.89781,1.31665 2.86654,1.94655 1.04188,0.69826 2.09291,1.38462 3.1837,2.0048 1.15144,0.67279 2.30936,1.33351 3.48179,1.96924 1.23104,0.67916 2.4647,1.3581 3.74502,1.94104 1.36577,0.62468 2.7516,1.20961 4.17913,1.67983 1.50462,0.51104 3.01005,1.02062 4.52197,1.50953 1.62073,0.48046 3.26078,0.88668 4.91523,1.23431 1.67621,0.37765 3.34657,0.80036 5.05453,1.01242 1.75954,0.23164 3.52284,0.48475 5.29905,0.53273 1.82339,0.022 3.63891,-0.0964 5.45297,-0.28291 1.86287,-0.18921 3.72296,-0.41701 5.56481,-0.75884 1.89161,-0.36533 3.76973,-0.80257 5.61127,-1.37246 1.94984,-0.63546 3.87378,-1.35971 5.70203,-2.29554 1.94114,-0.9733 3.83515,-2.03758 5.66933,-3.20097 1.85813,-1.17478 3.65965,-2.43807 5.36234,-3.83072 1.74693,-1.47742 3.42931,-3.02978 4.94955,-4.74363 1.61523,-1.78963 3.17938,-3.62642 4.50678,-5.64475 1.42288,-2.12166 2.74268,-4.31015 3.82879,-6.62639 1.11176,-2.37691 2.16154,-4.78288 3.12338,-7.22466 0.91542,-2.42893 1.77947,-4.87563 2.47782,-7.37746 0.70334,-2.45077 1.38675,-4.90782 1.95188,-7.39488 0.55461,-2.35854 1.10119,-4.71894 1.59118,-7.09187 0.46801,-2.29016 0.90095,-4.58786 1.24833,-6.89972 0.34092,-2.26121 0.67719,-4.52312 1.0285,-6.78276 0.30361,-2.17349 0.59244,-4.3492 0.86444,-6.52687 0.26371,-2.10969 0.50337,-4.22739 0.53361,-6.35552 -0.0654,-1.88052 -0.14975,-3.76095 -0.29095,-5.63747 -0.12471,-1.65359 -0.28329,-3.3051 -0.52985,-4.94554 -0.21491,-1.39485 -0.44221,-2.78947 -0.79369,-4.15776 -0.24607,-1.01408 -0.50946,-2.02677 -0.86149,-3.00999 -0.18394,-0.51279 -0.3631,-1.03429 -0.62229,-1.51452 -0.42865,-0.85729 0.78375,-1.46349 1.2124,-0.6062 z"
           inkscape:connector-curvature="0" />
      </g>
    </g>
    <text
       xml:space="preserve"
       style="font-style:normal;font-weight:normal;font-size:14.61415768px;line-height:125%;font-family:sans-serif;text-align:end;letter-spacing:0px;word-spacing:0px;writing-mode:lr-tb;text-anchor:end;fill:#ff0000;fill-opacity:1;stroke:#ffffff;stroke-width:4.54251957;stroke-linecap:butt;stroke-linejoin:round;stroke-miterlimit:4;stroke-dasharray:none;stroke-opacity:1"
       x="226.46365"
       y="420.30673"
       id="text4295"
       sodipodi:linespacing="125%"><tspan
         sodipodi:role="line"
         x="226.46365"
         y="420.30673"
         id="tspan4297"
         style="stroke-width:4.54251957">LED rojo: accediendo</tspan><tspan
         id="tspan4299"
         sodipodi:role="line"
         x="226.46365"
         y="438.57443"
         style="stroke-width:4.54251957">a la memoria.</tspan><tspan
         id="tspan4301"
         sodipodi:role="line"
         x="226.46365"
         y="456.84213"
         style="stroke-width:4.54251957">LED verde: se puede</tspan><tspan
         id="tspan4303"
         sodipodi:role="line"
         x="226.46365"
         y="475.10983"
         style="stroke-width:4.54251957">retirar la memoria</tspan><tspan
         id="tspan4305"
         sodipodi:role="line"
         x="226.46365"
         y="493.37753"
         style="stroke-width:4.54251957">con seguridad.</tspan></text>
    <text
       sodipodi:linespacing="125%"
       id="text4240"
       y="420.30673"
       x="226.46365"
       style="font-style:normal;font-weight:normal;font-size:14.61415768px;line-height:125%;font-family:sans-serif;text-align:end;letter-spacing:0px;word-spacing:0px;writing-mode:lr-tb;text-anchor:end;fill:#ff0000;fill-opacity:1;stroke:none;stroke-width:1px;stroke-linecap:butt;stroke-linejoin:miter;stroke-opacity:1"
       xml:space="preserve"><tspan
         id="tspan4248"
         y="420.30673"
         x="226.46365"
         sodipodi:role="line">LED rojo: accediendo</tspan><tspan
         y="438.57443"
         x="226.46365"
         sodipodi:role="line"
         id="tspan4287">a la memoria.</tspan><tspan
         y="456.84213"
         x="226.46365"
         sodipodi:role="line"
         id="tspan4289">LED verde: se puede</tspan><tspan
         y="475.10983"
         x="226.46365"
         sodipodi:role="line"
         id="tspan4291">retirar la memoria</tspan><tspan
         y="493.37753"
         x="226.46365"
         sodipodi:role="line"
         id="tspan4293">con seguridad.</tspan></text>
    <path
       inkscape:connector-curvature="0"
       d="m 177.98236,504.63367 c -0.005,0.0595 -0.0172,0.1189 -0.0141,0.1785 0.0137,0.26355 0.16696,0.60807 0.24207,0.84966 0.14665,0.47174 0.17608,0.55863 0.33131,1.04033 0.43733,1.38491 0.96514,2.7385 1.54755,4.06816 0.87289,1.93931 1.84469,3.83096 2.77905,5.74069 1.22605,2.47063 2.51405,4.91012 3.7935,7.3534 1.28703,2.47119 2.6422,4.90497 4.09735,7.28096 1.44348,2.27942 2.99731,4.48742 4.57591,6.67467 1.5091,2.07037 3.21392,3.9797 4.9803,5.83069 1.71417,1.75217 3.56218,3.36534 5.48297,4.88563 1.8395,1.42431 3.83742,2.62412 5.84698,3.78903 2.05561,1.18647 4.19052,2.22394 6.33945,3.22795 2.16602,1.03741 4.41793,1.87394 6.68498,2.65912 2.24189,0.74598 4.54425,1.28867 6.85534,1.76957 2.28676,0.45923 4.6026,0.74667 6.92026,0.99432 2.23096,0.16193 4.46657,0.10281 6.69347,-0.0777 2.05771,-0.22152 4.08994,-0.63914 6.09841,-1.13095 1.82698,-0.46289 3.62522,-1.03069 5.40948,-1.63563 1.77244,-0.58982 3.43922,-1.43866 5.07843,-2.32397 1.51257,-0.86383 3.0113,-1.75315 4.4618,-2.71799 1.39606,-0.95683 2.68569,-2.05137 3.92483,-3.20086 1.22315,-1.12075 2.33903,-2.34732 3.4013,-3.61931 1.03903,-1.29167 2.0313,-2.62113 2.91044,-4.02698 0.81142,-1.34292 1.54365,-2.73008 2.2326,-4.13895 0.62759,-1.25615 1.19159,-2.54202 1.70807,-3.84741 0.46624,-1.20256 0.9035,-2.41571 1.38965,-3.61048 0.43541,-1.00682 0.87512,-2.01145 1.2936,-3.02551 0.36835,-0.93532 0.72528,-1.87536 1.1115,-2.8035 0.3092,-0.78953 0.68249,-1.5507 1.05729,-2.31037 0.28419,-0.5764 0.56046,-1.15649 0.84616,-1.73214 0.20996,-0.4599 0.4257,-0.91732 0.61652,-1.38565 0.14864,-0.34631 0.24606,-0.71133 0.38924,-1.05938 0.20158,-0.4374 0.63862,-0.77369 1.14033,-0.49984 0.11307,0.0617 0.17674,0.18744 0.26511,0.28116 0.21577,0.52654 0.24876,1.10809 0.3242,1.66737 0.13238,0.92441 0.31029,1.84146 0.47858,2.75978 0.18679,0.98345 0.38246,1.96508 0.57813,2.94679 0.17788,0.44935 0.11311,1.32946 0.4081,1.71009 -0.17742,-0.45845 0.0387,-0.0225 -1.05411,-0.0944 -0.0395,-0.003 0.0489,-0.0743 0.057,-0.33771 0.003,-0.0949 -0.0698,-0.56018 -0.0743,-0.59164 -0.14519,-0.92593 -0.34675,-1.84182 -0.54343,-2.75784 -0.16535,-0.83594 -0.33474,-1.67049 -0.51197,-2.50403 -0.11324,-0.57274 -0.23565,-1.1413 -0.39894,-1.70189 -0.0562,-0.12426 -0.088,-0.29583 -0.19163,-0.39588 -0.0114,-0.011 0.0585,0.0747 -0.0325,0.0717 -0.40603,0.0108 -0.80019,0.14002 -1.19184,0.23626 -0.93248,0.22384 -1.85419,0.4888 -2.77987,0.73838 -1.05315,0.28338 -2.08964,0.62586 -3.12061,0.98058 -0.76828,0.29575 -1.56031,0.53362 -2.30865,0.87848 -0.0959,0.0489 -0.19184,0.0977 -0.28776,0.14652 -0.74001,0.36458 -1.25561,-0.68194 -0.5156,-1.04653 l 0,0 c 0.10948,-0.0524 0.21896,-0.10471 0.32844,-0.15707 0.78981,-0.34746 1.62359,-0.57757 2.43358,-0.8729 1.05568,-0.33972 2.1095,-0.68688 3.17937,-0.98006 0.92599,-0.26374 1.84466,-0.5522 2.77086,-0.81532 0.58448,-0.16818 1.17352,-0.39518 1.79189,-0.30129 0.65606,0.18919 0.91052,0.56817 1.08698,1.20307 0.14778,0.58994 0.26141,1.18575 0.36632,1.78474 0.16361,0.8331 0.31538,1.66819 0.47956,2.50113 0.19779,0.93419 0.38725,1.87011 0.57553,2.80624 0.0322,0.1776 0.22593,1.47205 0.0328,1.57871 -0.33703,0.18611 -0.72892,0.2849 -1.11325,0.30771 -0.0899,0.005 -0.0907,-0.15572 -0.13604,-0.23357 -0.17788,-0.63369 -0.21148,-1.2995 -0.35413,-1.94134 -0.18172,-0.98235 -0.36709,-1.96407 -0.55708,-2.94482 -0.19689,-0.92851 -0.35606,-1.86425 -0.53889,-2.79558 -0.0726,-0.40711 -0.17268,-0.80002 -0.2668,-1.19985 -0.003,-0.0116 0.0141,0.0192 0.0213,0.0288 0.0615,0.0514 0.10983,0.12518 0.18458,0.15408 0.1077,0.0417 0.22836,0.0652 0.34282,0.0499 0.21543,-0.0288 0.31777,-0.18161 0.29203,-0.19397 -0.0112,-0.005 -0.0188,0.0164 -0.0282,0.0246 -0.15917,0.33524 -0.24812,0.70114 -0.4113,1.03526 -0.21171,0.48965 -0.43822,0.97243 -0.6677,1.45391 -0.29327,0.57087 -0.57882,1.14549 -0.87193,1.71649 -0.3744,0.73177 -0.75142,1.46286 -1.05814,2.2266 -0.39394,0.92111 -0.75228,1.85686 -1.12536,2.78653 -0.41581,1.0166 -0.87175,2.01544 -1.31383,3.02069 -0.49935,1.18319 -0.95302,2.38452 -1.41842,3.58132 -0.52892,1.3309 -1.1037,2.64321 -1.75841,3.91763 -0.71665,1.43231 -1.47514,2.84294 -2.31148,4.20962 -0.90279,1.44389 -1.91126,2.81654 -2.99206,4.13268 -1.08532,1.30937 -2.22877,2.57363 -3.48346,3.72406 -1.28692,1.17233 -2.62045,2.29226 -4.05618,3.28045 -1.47226,0.98839 -3.00292,1.88534 -4.54908,2.75292 -1.68765,0.90524 -3.4127,1.75634 -5.2273,2.37907 -1.81019,0.62075 -3.64034,1.18785 -5.49979,1.64307 -2.05913,0.48149 -4.13833,0.9037 -6.24425,1.11754 -2.28263,0.18335 -4.57404,0.21463 -6.85996,0.0531 -2.34605,-0.25316 -4.68872,-0.55245 -7.00473,-1.01136 -2.34683,-0.48796 -4.68027,-1.05482 -6.9568,-1.81095 -2.30098,-0.78088 -4.56982,-1.65712 -6.77169,-2.68775 -2.17547,-1.00842 -4.32498,-2.07637 -6.41486,-3.25315 -2.04675,-1.18629 -4.07426,-2.42138 -5.94861,-3.86975 -1.93941,-1.55753 -3.80214,-3.21275 -5.55422,-4.97937 -1.79719,-1.87504 -3.4896,-3.84447 -5.02158,-5.94431 -1.59431,-2.20101 -3.16881,-4.41997 -4.59995,-6.73173 -1.46883,-2.38924 -2.8366,-4.83558 -4.10426,-7.33792 -1.28531,-2.44623 -2.61227,-4.87025 -3.87858,-7.32646 -0.97911,-1.90414 -1.97501,-3.80048 -2.90605,-5.72875 -0.60845,-1.35214 -1.21542,-2.70769 -1.67843,-4.11828 -0.28257,-0.79385 -0.66031,-1.58177 -0.78184,-2.41766 0,-0.88574 1.25264,-0.88574 1.25264,0 z"
       id="path4309"
       style="fill:#ff2a2a;fill-opacity:1;fill-rule:nonzero;stroke:#ffffff;stroke-width:4.54251957;stroke-linecap:butt;stroke-linejoin:miter;stroke-miterlimit:4;stroke-dasharray:none;stroke-opacity:1" />
    <path
       style="fill:#ff2a2a;fill-opacity:1;fill-rule:nonzero;stroke:none;stroke-width:1px;stroke-linecap:butt;stroke-linejoin:miter;stroke-opacity:1"
       id="path4307"
       d="m 177.98236,504.63367 c -0.005,0.0595 -0.0172,0.1189 -0.0141,0.1785 0.0137,0.26355 0.16696,0.60807 0.24207,0.84966 0.14665,0.47174 0.17608,0.55863 0.33131,1.04033 0.43733,1.38491 0.96514,2.7385 1.54755,4.06816 0.87289,1.93931 1.84469,3.83096 2.77905,5.74069 1.22605,2.47063 2.51405,4.91012 3.79349,7.35341 1.28704,2.47118 2.64221,4.90496 4.09736,7.28095 1.44348,2.27942 2.99731,4.48742 4.57591,6.67467 1.5091,2.07037 3.21392,3.9797 4.9803,5.83069 1.71417,1.75217 3.56218,3.36534 5.48297,4.88563 1.8395,1.42431 3.83742,2.62412 5.84698,3.78903 2.05561,1.18647 4.19052,2.22394 6.33945,3.22795 2.16602,1.03741 4.41793,1.87394 6.68498,2.65912 2.24189,0.74598 4.54425,1.28867 6.85534,1.76957 2.28676,0.45923 4.6026,0.74667 6.92026,0.99432 2.23096,0.16193 4.46657,0.10281 6.69347,-0.0777 2.05771,-0.22152 4.08994,-0.63914 6.09841,-1.13095 1.82698,-0.46289 3.62522,-1.03069 5.40948,-1.63563 1.77244,-0.58982 3.43922,-1.43866 5.07843,-2.32397 1.51257,-0.86383 3.0113,-1.75315 4.4618,-2.71799 1.39606,-0.95683 2.68569,-2.05137 3.92483,-3.20086 1.22315,-1.12075 2.33903,-2.34732 3.4013,-3.61931 1.03903,-1.29167 2.0313,-2.62113 2.91044,-4.02698 0.81142,-1.34292 1.54365,-2.73008 2.2326,-4.13895 0.62759,-1.25615 1.19159,-2.54202 1.70807,-3.84741 0.46624,-1.20256 0.9035,-2.41571 1.38965,-3.61048 0.43541,-1.00682 0.87512,-2.01145 1.2936,-3.02551 0.36835,-0.93532 0.72528,-1.87536 1.1115,-2.8035 0.3092,-0.78953 0.68249,-1.55069 1.05729,-2.31037 0.28419,-0.5764 0.56046,-1.15649 0.84616,-1.73214 0.20996,-0.4599 0.4257,-0.91732 0.61652,-1.38565 0.14864,-0.34631 0.24606,-0.71133 0.38924,-1.05938 0.20158,-0.4374 0.63862,-0.77369 1.14033,-0.49984 0.11307,0.0617 0.17674,0.18744 0.26511,0.28116 0.21577,0.52654 0.24876,1.10809 0.3242,1.66737 0.13238,0.92441 0.31029,1.84146 0.47858,2.75978 0.18679,0.98345 0.38246,1.96508 0.57813,2.9468 0.17788,0.44934 0.11311,1.32945 0.4081,1.71008 -0.17742,-0.45845 0.0387,-0.0225 -1.05411,-0.0944 -0.0395,-0.003 0.0489,-0.0743 0.057,-0.33771 0.003,-0.0949 -0.0698,-0.56018 -0.0743,-0.59164 -0.14519,-0.92593 -0.34675,-1.84182 -0.54343,-2.75784 -0.16535,-0.83594 -0.33474,-1.67049 -0.51197,-2.50403 -0.11324,-0.57274 -0.23565,-1.1413 -0.39894,-1.70189 -0.0562,-0.12426 -0.088,-0.29583 -0.19163,-0.39588 -0.0114,-0.011 0.0585,0.0747 -0.0325,0.0717 -0.40603,0.0108 -0.80019,0.14002 -1.19184,0.23626 -0.93248,0.22384 -1.85419,0.4888 -2.77987,0.73838 -1.05315,0.28338 -2.08964,0.62586 -3.12061,0.98058 -0.76828,0.29575 -1.56031,0.53362 -2.30865,0.87848 -0.0959,0.0489 -0.19184,0.0977 -0.28776,0.14652 -0.74001,0.36458 -1.25561,-0.68194 -0.5156,-1.04653 l 0,0 c 0.10948,-0.0524 0.21896,-0.10471 0.32844,-0.15707 0.78981,-0.34746 1.62359,-0.57757 2.43358,-0.8729 1.05568,-0.33972 2.1095,-0.68688 3.17937,-0.98006 0.92599,-0.26374 1.84466,-0.5522 2.77086,-0.81532 0.58448,-0.16818 1.17352,-0.39518 1.79189,-0.30129 0.65606,0.18919 0.91052,0.56817 1.08698,1.20307 0.14778,0.58994 0.26141,1.18575 0.36632,1.78474 0.16361,0.8331 0.31538,1.66819 0.47956,2.50113 0.19779,0.93419 0.38725,1.87011 0.57553,2.80624 0.0322,0.1776 0.22593,1.47205 0.0328,1.57871 -0.33703,0.18611 -0.72892,0.2849 -1.11325,0.30771 -0.0899,0.005 -0.0907,-0.15572 -0.13604,-0.23357 -0.17788,-0.63369 -0.21148,-1.2995 -0.35413,-1.94134 -0.18172,-0.98235 -0.36709,-1.96407 -0.55708,-2.94482 -0.19689,-0.92851 -0.35606,-1.86425 -0.53889,-2.79558 -0.0726,-0.40711 -0.17268,-0.80002 -0.2668,-1.19985 -0.003,-0.0116 0.0141,0.0192 0.0213,0.0288 0.0615,0.0514 0.10983,0.12518 0.18458,0.15408 0.1077,0.0417 0.22836,0.0652 0.34282,0.0499 0.21543,-0.0288 0.31777,-0.18161 0.29203,-0.19397 -0.0112,-0.005 -0.0188,0.0164 -0.0282,0.0246 -0.15917,0.33524 -0.24812,0.70114 -0.4113,1.03526 -0.21171,0.48965 -0.43822,0.97243 -0.6677,1.45391 -0.29327,0.57087 -0.57882,1.14549 -0.87193,1.71649 -0.3744,0.73177 -0.75142,1.46286 -1.05814,2.2266 -0.39394,0.92111 -0.75228,1.85686 -1.12536,2.78653 -0.41581,1.0166 -0.87175,2.01544 -1.31383,3.02069 -0.49935,1.18319 -0.95302,2.38452 -1.41842,3.58132 -0.52892,1.3309 -1.1037,2.64321 -1.75841,3.91763 -0.71665,1.43231 -1.47514,2.84295 -2.31148,4.20962 -0.90279,1.44389 -1.91126,2.81654 -2.99206,4.13268 -1.08532,1.30937 -2.22877,2.57363 -3.48346,3.72406 -1.28692,1.17233 -2.62045,2.29226 -4.05618,3.28045 -1.47226,0.98839 -3.00292,1.88534 -4.54908,2.75292 -1.68765,0.90524 -3.4127,1.75634 -5.2273,2.37907 -1.81019,0.62075 -3.64034,1.18785 -5.49979,1.64308 -2.05913,0.48148 -4.13833,0.90369 -6.24425,1.11753 -2.28263,0.18335 -4.57404,0.21463 -6.85996,0.0531 -2.34605,-0.25316 -4.68872,-0.55245 -7.00473,-1.01136 -2.34684,-0.48796 -4.68027,-1.05482 -6.9568,-1.81095 -2.30098,-0.78088 -4.56982,-1.65712 -6.77169,-2.68775 -2.17547,-1.00842 -4.32498,-2.07637 -6.41486,-3.25315 -2.04675,-1.18629 -4.07426,-2.42138 -5.94861,-3.86975 -1.93941,-1.55753 -3.80214,-3.21275 -5.55422,-4.97937 -1.79719,-1.87504 -3.4896,-3.84447 -5.02158,-5.94431 -1.59431,-2.20101 -3.16881,-4.41997 -4.59995,-6.73173 -1.46883,-2.38924 -2.8366,-4.83558 -4.10426,-7.33792 -1.28531,-2.44623 -2.61227,-4.87025 -3.87858,-7.32646 -0.97911,-1.90414 -1.97501,-3.80048 -2.90605,-5.72875 -0.60845,-1.35214 -1.21542,-2.70769 -1.67843,-4.11828 -0.28257,-0.79385 -0.66031,-1.58177 -0.78184,-2.41766 0,-0.88574 1.25264,-0.88574 1.25264,0 z"
       inkscape:connector-curvature="0" />
  </g>
</svg>
